<mxfile host="Electron" agent="Mozilla/5.0 (Windows NT 10.0; Win64; x64) AppleWebKit/537.36 (KHTML, like Gecko) draw.io/24.7.17 Chrome/128.0.6613.36 Electron/32.0.1 Safari/537.36" version="24.7.17">
  <diagram name="Page-1" id="HX-n5RwU4yS9j-6OuBTY">
    <mxGraphModel dx="988" dy="570" grid="1" gridSize="10" guides="1" tooltips="1" connect="1" arrows="1" fold="1" page="1" pageScale="1" pageWidth="850" pageHeight="1100" math="0" shadow="0">
      <root>
        <mxCell id="0" />
        <mxCell id="1" parent="0" />
        <mxCell id="03DxG6IQkUXKNhE9hXaz-13" value="" style="edgeStyle=orthogonalEdgeStyle;rounded=0;orthogonalLoop=1;jettySize=auto;html=1;" parent="1" source="Q2nsGRmkFAV52NvcU29X-1" target="Q2nsGRmkFAV52NvcU29X-2" edge="1">
          <mxGeometry relative="1" as="geometry" />
        </mxCell>
        <mxCell id="Q2nsGRmkFAV52NvcU29X-1" value="RawHits" style="rounded=0;whiteSpace=wrap;html=1;fillColor=#4DB6AC;" parent="1" vertex="1">
          <mxGeometry x="110" y="45" width="55" height="30" as="geometry" />
        </mxCell>
        <mxCell id="03DxG6IQkUXKNhE9hXaz-5" value="" style="edgeStyle=orthogonalEdgeStyle;rounded=0;orthogonalLoop=1;jettySize=auto;html=1;" parent="1" source="Q2nsGRmkFAV52NvcU29X-2" target="Q2nsGRmkFAV52NvcU29X-3" edge="1">
          <mxGeometry relative="1" as="geometry" />
        </mxCell>
        <mxCell id="Q2nsGRmkFAV52NvcU29X-2" value="Hit Processing Algorithm" style="rounded=1;whiteSpace=wrap;html=1;fillColor=#FF8A65;" parent="1" vertex="1">
          <mxGeometry x="185" y="30" width="90" height="60" as="geometry" />
        </mxCell>
        <mxCell id="Q2nsGRmkFAV52NvcU29X-3" value="HitClusters" style="rounded=0;whiteSpace=wrap;html=1;fillColor=#4DB6AC;" parent="1" vertex="1">
          <mxGeometry x="290" y="45" width="70" height="30" as="geometry" />
        </mxCell>
        <mxCell id="Q2nsGRmkFAV52NvcU29X-5" value="Track Finding&lt;div&gt;Algorithm&lt;/div&gt;" style="rounded=1;whiteSpace=wrap;html=1;fillColor=#FF8A65;" parent="1" vertex="1">
          <mxGeometry x="380" y="60" width="90" height="35" as="geometry" />
        </mxCell>
        <mxCell id="Q2nsGRmkFAV52NvcU29X-6" value="Candidates" style="rounded=0;whiteSpace=wrap;html=1;fillColor=#4DB6AC;" parent="1" vertex="1">
          <mxGeometry x="490" y="62.5" width="70" height="30" as="geometry" />
        </mxCell>
        <mxCell id="Q2nsGRmkFAV52NvcU29X-8" value="Track Fitting&lt;div&gt;Algorithm&lt;/div&gt;" style="rounded=1;whiteSpace=wrap;html=1;fillColor=#FF8A65;" parent="1" vertex="1">
          <mxGeometry x="580" y="30" width="90" height="60" as="geometry" />
        </mxCell>
        <mxCell id="WwgOPf-HHEXzUrfKRb7a-1" style="edgeStyle=none;rounded=0;orthogonalLoop=1;jettySize=auto;html=1;exitX=1;exitY=0.5;exitDx=0;exitDy=0;entryX=0;entryY=0.5;entryDx=0;entryDy=0;" parent="1" source="Q2nsGRmkFAV52NvcU29X-9" target="03DxG6IQkUXKNhE9hXaz-6" edge="1">
          <mxGeometry relative="1" as="geometry" />
        </mxCell>
        <mxCell id="Q2nsGRmkFAV52NvcU29X-9" value="Tracks" style="rounded=0;whiteSpace=wrap;html=1;fillColor=#4DB6AC;" parent="1" vertex="1">
          <mxGeometry x="690" y="45" width="70" height="30" as="geometry" />
        </mxCell>
        <mxCell id="Q2nsGRmkFAV52NvcU29X-17" value="" style="endArrow=classic;html=1;rounded=0;exitX=1;exitY=0.5;exitDx=0;exitDy=0;entryX=0;entryY=0.5;entryDx=0;entryDy=0;" parent="1" source="Q2nsGRmkFAV52NvcU29X-1" target="Q2nsGRmkFAV52NvcU29X-2" edge="1">
          <mxGeometry width="50" height="50" relative="1" as="geometry">
            <mxPoint x="475" y="435" as="sourcePoint" />
            <mxPoint x="525" y="385" as="targetPoint" />
          </mxGeometry>
        </mxCell>
        <mxCell id="Q2nsGRmkFAV52NvcU29X-18" value="" style="endArrow=classic;html=1;rounded=0;exitX=1;exitY=0.5;exitDx=0;exitDy=0;entryX=0;entryY=0.5;entryDx=0;entryDy=0;" parent="1" target="Q2nsGRmkFAV52NvcU29X-3" edge="1">
          <mxGeometry width="50" height="50" relative="1" as="geometry">
            <mxPoint x="275" y="59.76" as="sourcePoint" />
            <mxPoint x="305" y="59.76" as="targetPoint" />
          </mxGeometry>
        </mxCell>
        <mxCell id="Q2nsGRmkFAV52NvcU29X-19" value="" style="endArrow=classic;html=1;rounded=0;exitX=1;exitY=0.5;exitDx=0;exitDy=0;entryX=0;entryY=0.5;entryDx=0;entryDy=0;" parent="1" target="Q2nsGRmkFAV52NvcU29X-5" edge="1">
          <mxGeometry width="50" height="50" relative="1" as="geometry">
            <mxPoint x="360" y="60" as="sourcePoint" />
            <mxPoint x="355" y="69.5" as="targetPoint" />
          </mxGeometry>
        </mxCell>
        <mxCell id="Q2nsGRmkFAV52NvcU29X-20" value="" style="endArrow=classic;html=1;rounded=0;exitX=1;exitY=0.5;exitDx=0;exitDy=0;entryX=0;entryY=0.5;entryDx=0;entryDy=0;" parent="1" source="Q2nsGRmkFAV52NvcU29X-5" target="Q2nsGRmkFAV52NvcU29X-6" edge="1">
          <mxGeometry width="50" height="50" relative="1" as="geometry">
            <mxPoint x="335" y="79.5" as="sourcePoint" />
            <mxPoint x="365" y="79.5" as="targetPoint" />
          </mxGeometry>
        </mxCell>
        <mxCell id="Q2nsGRmkFAV52NvcU29X-21" value="" style="endArrow=classic;html=1;rounded=0;exitX=1;exitY=0.5;exitDx=0;exitDy=0;entryX=0;entryY=0.5;entryDx=0;entryDy=0;" parent="1" source="Q2nsGRmkFAV52NvcU29X-6" target="Q2nsGRmkFAV52NvcU29X-8" edge="1">
          <mxGeometry width="50" height="50" relative="1" as="geometry">
            <mxPoint x="345" y="89.5" as="sourcePoint" />
            <mxPoint x="375" y="89.5" as="targetPoint" />
          </mxGeometry>
        </mxCell>
        <mxCell id="Q2nsGRmkFAV52NvcU29X-22" value="" style="endArrow=classic;html=1;rounded=0;exitX=1;exitY=0.5;exitDx=0;exitDy=0;entryX=0;entryY=0.5;entryDx=0;entryDy=0;" parent="1" source="Q2nsGRmkFAV52NvcU29X-8" target="Q2nsGRmkFAV52NvcU29X-9" edge="1">
          <mxGeometry width="50" height="50" relative="1" as="geometry">
            <mxPoint x="355" y="99.5" as="sourcePoint" />
            <mxPoint x="385" y="99.5" as="targetPoint" />
          </mxGeometry>
        </mxCell>
        <mxCell id="03DxG6IQkUXKNhE9hXaz-2" style="edgeStyle=orthogonalEdgeStyle;rounded=0;orthogonalLoop=1;jettySize=auto;html=1;exitX=0.5;exitY=1;exitDx=0;exitDy=0;" parent="1" source="Q2nsGRmkFAV52NvcU29X-5" target="Q2nsGRmkFAV52NvcU29X-5" edge="1">
          <mxGeometry relative="1" as="geometry" />
        </mxCell>
        <mxCell id="03DxG6IQkUXKNhE9hXaz-3" value="" style="endArrow=classic;html=1;rounded=0;exitX=1;exitY=0.25;exitDx=0;exitDy=0;entryX=0.036;entryY=0.172;entryDx=0;entryDy=0;entryPerimeter=0;" parent="1" edge="1">
          <mxGeometry width="50" height="50" relative="1" as="geometry">
            <mxPoint x="360" y="52.5" as="sourcePoint" />
            <mxPoint x="580" y="40.319999999999936" as="targetPoint" />
            <Array as="points">
              <mxPoint x="386.76" y="40" />
            </Array>
          </mxGeometry>
        </mxCell>
        <mxCell id="03DxG6IQkUXKNhE9hXaz-15" style="edgeStyle=orthogonalEdgeStyle;rounded=0;orthogonalLoop=1;jettySize=auto;html=1;exitX=1;exitY=0.5;exitDx=0;exitDy=0;entryX=0;entryY=0.5;entryDx=0;entryDy=0;" parent="1" source="03DxG6IQkUXKNhE9hXaz-4" target="Q2nsGRmkFAV52NvcU29X-1" edge="1">
          <mxGeometry relative="1" as="geometry" />
        </mxCell>
        <mxCell id="03DxG6IQkUXKNhE9hXaz-4" value="Event&amp;nbsp;&lt;div&gt;Source&lt;/div&gt;" style="rounded=1;whiteSpace=wrap;html=1;fillColor=#1ba1e2;fontColor=#ffffff;strokeColor=#006EAF;" parent="1" vertex="1">
          <mxGeometry y="25" width="95" height="70" as="geometry" />
        </mxCell>
        <mxCell id="03DxG6IQkUXKNhE9hXaz-6" value="Output" style="rounded=1;whiteSpace=wrap;html=1;fillColor=#0050ef;fontColor=#ffffff;strokeColor=#001DBC;" parent="1" vertex="1">
          <mxGeometry x="780" y="25" width="70" height="70" as="geometry" />
        </mxCell>
        <mxCell id="03DxG6IQkUXKNhE9hXaz-19" style="edgeStyle=orthogonalEdgeStyle;rounded=0;orthogonalLoop=1;jettySize=auto;html=1;exitX=0.5;exitY=0;exitDx=0;exitDy=0;entryX=0.5;entryY=1;entryDx=0;entryDy=0;fillColor=#e51400;strokeColor=#FF66B3;dashed=1;" parent="1" source="03DxG6IQkUXKNhE9hXaz-7" target="Q2nsGRmkFAV52NvcU29X-2" edge="1">
          <mxGeometry relative="1" as="geometry" />
        </mxCell>
        <mxCell id="03DxG6IQkUXKNhE9hXaz-7" value="Calibrations" style="rounded=1;whiteSpace=wrap;html=1;fillColor=#d80073;fontColor=#ffffff;strokeColor=#A50040;" parent="1" vertex="1">
          <mxGeometry x="240" y="140" width="120" height="30" as="geometry" />
        </mxCell>
        <mxCell id="03DxG6IQkUXKNhE9hXaz-20" style="edgeStyle=orthogonalEdgeStyle;rounded=0;orthogonalLoop=1;jettySize=auto;html=1;exitX=0.5;exitY=0;exitDx=0;exitDy=0;entryX=0.25;entryY=1;entryDx=0;entryDy=0;fillColor=#e51400;strokeColor=#FF66B3;dashed=1;" parent="1" source="03DxG6IQkUXKNhE9hXaz-8" target="Q2nsGRmkFAV52NvcU29X-8" edge="1">
          <mxGeometry relative="1" as="geometry" />
        </mxCell>
        <mxCell id="03DxG6IQkUXKNhE9hXaz-25" style="edgeStyle=orthogonalEdgeStyle;rounded=0;orthogonalLoop=1;jettySize=auto;html=1;exitX=0.25;exitY=0;exitDx=0;exitDy=0;entryX=0.25;entryY=1;entryDx=0;entryDy=0;fillColor=#e51400;strokeColor=#FF66B3;dashed=1;" parent="1" source="03DxG6IQkUXKNhE9hXaz-8" target="Q2nsGRmkFAV52NvcU29X-5" edge="1">
          <mxGeometry relative="1" as="geometry" />
        </mxCell>
        <mxCell id="03DxG6IQkUXKNhE9hXaz-8" value="Geometry" style="rounded=1;whiteSpace=wrap;html=1;fillColor=#d80073;fontColor=#ffffff;strokeColor=#A50040;" parent="1" vertex="1">
          <mxGeometry x="370" y="140" width="120" height="30" as="geometry" />
        </mxCell>
        <mxCell id="03DxG6IQkUXKNhE9hXaz-9" value="" style="shape=cylinder3;whiteSpace=wrap;html=1;boundedLbl=1;backgroundOutline=1;size=15;fillColor=#008a00;fontColor=#ffffff;strokeColor=#005700;" parent="1" vertex="1">
          <mxGeometry x="17.5" y="105" width="60" height="65" as="geometry" />
        </mxCell>
        <mxCell id="03DxG6IQkUXKNhE9hXaz-10" value="" style="shape=cylinder3;whiteSpace=wrap;html=1;boundedLbl=1;backgroundOutline=1;size=15;fillColor=#008a00;fontColor=#ffffff;strokeColor=#005700;" parent="1" vertex="1">
          <mxGeometry x="785" y="105" width="60" height="65" as="geometry" />
        </mxCell>
        <mxCell id="03DxG6IQkUXKNhE9hXaz-16" value="" style="html=1;shadow=0;dashed=0;align=center;verticalAlign=middle;shape=mxgraph.arrows2.arrow;dy=0.55;dx=11.43;direction=north;notch=0;" parent="1" vertex="1">
          <mxGeometry x="37.5" y="95" width="20" height="20" as="geometry" />
        </mxCell>
        <mxCell id="03DxG6IQkUXKNhE9hXaz-17" value="" style="html=1;shadow=0;dashed=0;align=center;verticalAlign=middle;shape=mxgraph.arrows2.arrow;dy=0.55;dx=11.43;direction=north;notch=0;rotation=-180;" parent="1" vertex="1">
          <mxGeometry x="805" y="95" width="20" height="20" as="geometry" />
        </mxCell>
        <mxCell id="03DxG6IQkUXKNhE9hXaz-21" style="edgeStyle=orthogonalEdgeStyle;rounded=0;orthogonalLoop=1;jettySize=auto;html=1;exitX=0.5;exitY=0;exitDx=0;exitDy=0;entryX=0.5;entryY=1;entryDx=0;entryDy=0;fillColor=#e51400;strokeColor=#FF66B3;dashed=1;" parent="1" source="03DxG6IQkUXKNhE9hXaz-18" target="Q2nsGRmkFAV52NvcU29X-8" edge="1">
          <mxGeometry relative="1" as="geometry">
            <Array as="points">
              <mxPoint x="560" y="120" />
              <mxPoint x="625" y="120" />
            </Array>
          </mxGeometry>
        </mxCell>
        <mxCell id="03DxG6IQkUXKNhE9hXaz-24" style="edgeStyle=orthogonalEdgeStyle;rounded=0;orthogonalLoop=1;jettySize=auto;html=1;exitX=0.25;exitY=0;exitDx=0;exitDy=0;fillColor=#e51400;strokeColor=#FF66B3;dashed=1;" parent="1" source="03DxG6IQkUXKNhE9hXaz-18" target="Q2nsGRmkFAV52NvcU29X-5" edge="1">
          <mxGeometry relative="1" as="geometry" />
        </mxCell>
        <mxCell id="03DxG6IQkUXKNhE9hXaz-18" value="Magnetic Field" style="rounded=1;whiteSpace=wrap;html=1;fillColor=#d80073;fontColor=#ffffff;strokeColor=#A50040;" parent="1" vertex="1">
          <mxGeometry x="500" y="140" width="120" height="30" as="geometry" />
        </mxCell>
        <mxCell id="WwgOPf-HHEXzUrfKRb7a-14" value="" style="group" parent="1" vertex="1" connectable="0">
          <mxGeometry x="290" y="180" width="365" height="30" as="geometry" />
        </mxCell>
        <mxCell id="WwgOPf-HHEXzUrfKRb7a-6" value="" style="group" parent="WwgOPf-HHEXzUrfKRb7a-14" vertex="1" connectable="0">
          <mxGeometry x="125" width="120" height="30" as="geometry" />
        </mxCell>
        <mxCell id="WwgOPf-HHEXzUrfKRb7a-7" value="" style="endArrow=classic;html=1;rounded=0;dashed=1;strokeColor=#FF66B3;" parent="WwgOPf-HHEXzUrfKRb7a-6" target="WwgOPf-HHEXzUrfKRb7a-8" edge="1">
          <mxGeometry width="50" height="50" relative="1" as="geometry">
            <mxPoint y="15" as="sourcePoint" />
            <mxPoint x="70" y="15" as="targetPoint" />
          </mxGeometry>
        </mxCell>
        <mxCell id="WwgOPf-HHEXzUrfKRb7a-8" value="- Dependency" style="text;html=1;align=center;verticalAlign=middle;whiteSpace=wrap;rounded=0;" parent="WwgOPf-HHEXzUrfKRb7a-6" vertex="1">
          <mxGeometry x="40" width="80" height="30" as="geometry" />
        </mxCell>
        <mxCell id="WwgOPf-HHEXzUrfKRb7a-13" value="" style="group" parent="WwgOPf-HHEXzUrfKRb7a-14" vertex="1" connectable="0">
          <mxGeometry x="255" width="110" height="30" as="geometry" />
        </mxCell>
        <mxCell id="WwgOPf-HHEXzUrfKRb7a-9" value="" style="html=1;shadow=0;dashed=0;align=center;verticalAlign=middle;shape=mxgraph.arrows2.arrow;dy=0.55;dx=11.43;direction=north;notch=0;rotation=90;" parent="WwgOPf-HHEXzUrfKRb7a-13" vertex="1">
          <mxGeometry y="5" width="20" height="20" as="geometry" />
        </mxCell>
        <mxCell id="WwgOPf-HHEXzUrfKRb7a-11" value="- Input Output" style="text;html=1;align=center;verticalAlign=middle;whiteSpace=wrap;rounded=0;" parent="WwgOPf-HHEXzUrfKRb7a-13" vertex="1">
          <mxGeometry x="30" width="80" height="30" as="geometry" />
        </mxCell>
        <mxCell id="WwgOPf-HHEXzUrfKRb7a-16" value="&lt;b&gt;Arrows Legend:&lt;/b&gt;" style="text;html=1;align=center;verticalAlign=middle;whiteSpace=wrap;rounded=0;" parent="1" vertex="1">
          <mxGeometry x="130" y="180" width="95" height="30" as="geometry" />
        </mxCell>
        <mxCell id="WwgOPf-HHEXzUrfKRb7a-5" value="" style="group" parent="1" vertex="1" connectable="0">
          <mxGeometry x="240" y="180" width="160" height="30" as="geometry" />
        </mxCell>
        <mxCell id="WwgOPf-HHEXzUrfKRb7a-3" value="" style="endArrow=classic;html=1;rounded=0;" parent="WwgOPf-HHEXzUrfKRb7a-5" target="WwgOPf-HHEXzUrfKRb7a-4" edge="1">
          <mxGeometry width="50" height="50" relative="1" as="geometry">
            <mxPoint y="15" as="sourcePoint" />
            <mxPoint x="70" y="15" as="targetPoint" />
          </mxGeometry>
        </mxCell>
        <mxCell id="WwgOPf-HHEXzUrfKRb7a-4" value="- Per event Data Flow" style="text;html=1;align=center;verticalAlign=middle;whiteSpace=wrap;rounded=0;" parent="WwgOPf-HHEXzUrfKRb7a-5" vertex="1">
          <mxGeometry x="40" width="120" height="30" as="geometry" />
        </mxCell>
      </root>
    </mxGraphModel>
  </diagram>
</mxfile>
